<?xml version="1.0" standalone="no"?>
<!DOCTYPE svg PUBLIC "-//W3C//DTD SVG 20010904//EN"
 "http://www.w3.org/TR/2001/REC-SVG-20010904/DTD/svg10.dtd">
<svg version="1.0" xmlns="http://www.w3.org/2000/svg"
 width="1162.000000pt" height="1162.000000pt" viewBox="0 0 1162.000000 1162.000000"
 preserveAspectRatio="xMidYMid meet">
<metadata>
Created by potrace 1.14, written by Peter Selinger 2001-2017
</metadata>
<g transform="translate(0.000000,1162.000000) scale(0.100000,-0.100000)"
fill="#000000" stroke="none">
<path d="M8504 9937 c-43 -16 -97 -65 -119 -106 -24 -47 -29 -118 -11 -167 12
-34 85 -145 152 -229 8 -11 23 -32 32 -47 9 -16 20 -28 24 -28 4 0 8 -5 8 -10
0 -6 5 -16 11 -23 5 -7 60 -82 121 -167 61 -85 141 -195 177 -245 37 -49 78
-107 91 -127 14 -21 28 -38 33 -38 4 0 7 -7 7 -15 0 -8 4 -15 8 -15 4 0 16
-14 26 -32 11 -17 25 -39 32 -47 29 -36 134 -181 134 -186 0 -3 7 -13 15 -22
8 -10 44 -58 79 -108 36 -49 69 -95 74 -100 5 -6 17 -24 28 -40 10 -17 21 -32
24 -35 3 -3 23 -30 45 -60 22 -30 42 -57 46 -60 3 -3 12 -15 18 -28 7 -13 19
-31 26 -40 30 -36 115 -153 115 -158 0 -3 6 -12 13 -19 18 -22 27 -33 96 -130
35 -49 81 -113 103 -141 21 -28 38 -56 38 -62 0 -7 4 -12 9 -12 5 0 20 -17 32
-37 13 -21 28 -43 34 -50 10 -11 31 -39 220 -303 58 -80 108 -150 112 -155 38
-48 63 -85 63 -91 0 -4 6 -12 13 -18 8 -6 47 -58 88 -116 40 -58 77 -109 82
-115 6 -8 137 -190 199 -276 9 -13 51 -70 93 -127 41 -56 75 -107 75 -112 0
-6 5 -10 10 -10 6 0 10 -6 10 -14 0 -8 6 -16 14 -19 8 -3 20 -17 28 -31 7 -13
34 -53 59 -89 l46 -64 -35 -49 c-20 -27 -78 -107 -129 -179 -51 -71 -98 -136
-105 -144 -6 -8 -27 -37 -47 -65 -19 -28 -38 -55 -43 -61 -12 -15 -77 -106
-118 -165 -19 -28 -43 -59 -52 -68 -10 -9 -18 -22 -18 -28 0 -7 -3 -14 -8 -16
-4 -1 -84 -109 -177 -238 -93 -129 -172 -237 -175 -240 -4 -3 -13 -16 -20 -30
-7 -14 -19 -32 -27 -40 -11 -13 -51 -67 -128 -175 -28 -41 -115 -160 -123
-170 -4 -5 -23 -32 -42 -60 -19 -27 -37 -52 -40 -55 -3 -3 -39 -52 -80 -110
-41 -58 -78 -107 -82 -108 -4 -2 -8 -8 -8 -13 0 -6 -4 -15 -10 -22 -31 -38
-68 -88 -171 -232 -62 -88 -117 -162 -121 -163 -5 -2 -8 -8 -8 -12 0 -7 -97
-144 -138 -195 -4 -5 -18 -26 -32 -45 -13 -19 -27 -37 -30 -40 -3 -3 -9 -13
-15 -22 -19 -31 -154 -216 -170 -231 -8 -9 -15 -19 -15 -24 0 -7 -27 -43 -78
-108 -4 -5 -18 -26 -32 -45 -13 -19 -27 -37 -30 -40 -3 -3 -9 -12 -15 -22 -21
-34 -141 -201 -157 -219 -10 -11 -18 -23 -18 -29 0 -5 -4 -10 -10 -10 -5 0
-10 -5 -10 -11 0 -6 -6 -16 -12 -24 -14 -14 -15 -15 -107 -145 -34 -47 -70
-96 -82 -110 -102 -122 -75 -286 59 -356 106 -56 216 -16 303 111 19 27 39 56
46 65 11 14 191 262 231 319 9 13 23 29 30 36 6 8 12 16 12 19 0 3 15 25 33
49 17 24 40 54 50 68 88 122 144 201 157 219 8 12 22 30 30 40 8 11 40 54 70
97 30 43 57 80 60 83 3 3 21 28 40 55 19 28 38 55 43 60 4 6 46 64 94 130 47
66 115 161 151 210 36 50 78 108 94 130 26 37 216 301 255 354 27 36 241 333
255 355 7 10 18 24 23 30 6 6 26 34 45 61 19 28 39 55 45 62 5 6 26 35 45 63
19 28 50 70 68 92 17 22 32 44 32 48 0 5 6 15 13 22 7 7 33 42 59 78 26 36 53
73 60 82 7 9 20 26 28 38 25 36 89 124 98 136 5 5 22 30 38 55 16 24 34 49 40
54 9 9 31 39 59 83 6 9 15 22 20 29 25 31 48 63 95 128 27 39 55 78 62 87 7 9
31 42 53 73 47 66 141 195 152 210 5 6 34 47 66 92 96 137 109 209 56 309 -17
32 -33 61 -37 64 -10 7 -122 158 -122 165 0 5 -24 36 -47 60 -7 8 -13 18 -13
24 0 6 -3 11 -7 11 -5 0 -21 21 -38 48 -16 26 -34 52 -40 59 -18 22 -29 36
-95 128 -35 50 -68 92 -72 93 -4 2 -8 8 -8 13 0 8 -45 71 -86 122 -8 9 -14 19
-14 22 0 3 -7 13 -14 22 -8 10 -99 135 -202 278 -103 143 -204 283 -225 311
-22 28 -39 56 -39 62 0 7 -4 12 -8 12 -5 0 -36 39 -70 88 -51 73 -123 173
-229 319 -10 14 -22 30 -28 37 -10 12 -19 25 -90 126 -21 30 -42 57 -47 58 -4
2 -8 10 -8 18 0 8 -3 14 -8 14 -4 0 -18 18 -32 40 -14 22 -28 40 -32 40 -5 0
-8 4 -8 10 0 8 -153 224 -188 265 -5 6 -17 24 -28 40 -10 17 -24 37 -31 45
-12 15 -174 239 -215 298 -13 18 -28 39 -33 45 -6 7 -33 44 -60 82 -27 39 -51
72 -55 75 -3 3 -23 32 -45 65 -22 33 -48 69 -58 80 -10 11 -36 48 -59 82 -23
35 -45 63 -50 63 -4 0 -8 4 -8 10 0 5 -27 45 -60 89 -33 44 -60 82 -60 85 0 4
-7 14 -16 24 -9 9 -48 62 -87 117 -39 55 -75 102 -79 103 -4 2 -8 8 -8 13 0
11 -88 128 -110 147 -54 46 -151 63 -216 39z"/>
<path d="M2958 9912 c-21 -8 -38 -19 -38 -23 0 -5 -6 -9 -12 -9 -7 0 -29 -23
-48 -51 -19 -27 -45 -60 -57 -73 -12 -13 -19 -27 -16 -30 3 -3 -2 -8 -11 -12
-9 -3 -16 -12 -16 -19 0 -7 -3 -15 -7 -17 -5 -1 -17 -16 -29 -33 -11 -16 -58
-82 -104 -145 -46 -63 -97 -135 -114 -160 -17 -25 -38 -54 -47 -65 -10 -11
-67 -90 -128 -175 -60 -85 -114 -159 -118 -165 -5 -5 -42 -57 -83 -115 -41
-58 -78 -109 -83 -115 -4 -5 -37 -50 -73 -100 -35 -49 -71 -98 -79 -108 -8 -9
-15 -20 -15 -23 0 -2 -5 -10 -10 -17 -17 -20 -71 -94 -199 -272 -67 -93 -128
-177 -135 -186 -8 -9 -35 -48 -61 -85 -26 -38 -50 -71 -53 -74 -4 -3 -20 -25
-37 -50 -28 -43 -84 -119 -95 -130 -3 -3 -9 -13 -15 -22 -23 -38 -160 -223
-167 -226 -4 -2 -8 -8 -8 -13 0 -6 -5 -15 -10 -22 -6 -7 -32 -41 -58 -77 -25
-36 -49 -67 -53 -70 -3 -3 -12 -15 -18 -28 -7 -13 -19 -31 -26 -40 -30 -36
-115 -153 -115 -158 0 -3 -6 -11 -12 -19 -7 -7 -21 -23 -30 -36 -9 -13 -66
-91 -125 -174 -60 -82 -124 -172 -143 -200 -19 -27 -38 -54 -43 -60 -4 -5 -32
-44 -62 -85 -29 -41 -61 -83 -69 -92 -9 -10 -16 -22 -16 -26 0 -5 -9 -17 -20
-27 -11 -10 -20 -24 -20 -32 0 -7 -4 -13 -9 -13 -4 0 -21 -19 -36 -42 -15 -23
-32 -47 -37 -52 -42 -50 -188 -267 -189 -280 0 -6 -3 -20 -5 -31 -12 -57 8
-126 59 -203 28 -42 54 -79 57 -82 3 -3 22 -27 41 -55 18 -27 37 -54 42 -60
69 -92 137 -188 137 -195 0 -4 4 -10 8 -12 5 -1 48 -59 98 -128 49 -69 91
-127 94 -130 3 -3 19 -25 35 -50 16 -25 32 -47 35 -50 19 -18 90 -121 90 -130
0 -5 3 -10 8 -10 4 0 18 -17 32 -38 14 -20 29 -41 33 -47 4 -5 29 -39 55 -75
25 -36 49 -67 52 -70 3 -3 10 -13 15 -22 23 -38 160 -223 167 -226 4 -2 8 -10
8 -17 0 -7 4 -15 8 -17 5 -1 38 -46 75 -98 36 -52 74 -104 82 -115 9 -11 48
-65 88 -120 39 -55 75 -101 79 -103 4 -2 8 -8 8 -13 0 -5 15 -29 33 -53 17
-24 41 -56 52 -71 11 -15 55 -75 97 -134 42 -58 88 -122 102 -141 121 -169
310 -428 321 -443 8 -9 15 -19 15 -22 0 -3 6 -13 14 -22 43 -52 86 -114 86
-123 0 -6 3 -10 8 -10 4 0 22 -23 41 -51 19 -29 40 -59 47 -68 40 -50 84 -112
84 -120 0 -5 4 -11 8 -13 4 -1 43 -52 87 -113 44 -60 85 -116 92 -123 7 -7 13
-16 13 -20 0 -4 10 -19 23 -34 13 -15 36 -47 52 -72 16 -26 33 -46 37 -46 4 0
8 -5 8 -11 0 -6 10 -24 23 -39 12 -15 29 -37 37 -50 8 -12 21 -28 28 -36 6 -7
12 -17 12 -22 0 -6 3 -12 8 -14 4 -2 36 -43 71 -93 68 -95 103 -135 121 -135
5 0 10 -4 10 -10 0 -6 42 -10 105 -10 l105 0 45 41 c25 23 45 47 45 54 0 7 6
25 14 40 18 34 13 103 -11 154 -10 20 -39 65 -65 101 -27 36 -56 76 -66 89 -9
14 -32 44 -50 68 -17 24 -32 47 -32 52 0 5 -3 11 -8 13 -6 3 -264 355 -360
493 -19 27 -39 52 -44 53 -4 2 -8 8 -8 12 0 8 -56 89 -118 170 -10 14 -66 90
-123 170 -57 80 -109 152 -116 160 -7 8 -49 67 -93 130 -45 63 -86 117 -91
118 -5 2 -9 8 -9 12 0 8 -275 394 -314 440 -7 9 -15 24 -19 33 -3 9 -11 17
-16 17 -5 0 -12 8 -15 18 -4 10 -14 27 -24 38 -9 11 -37 49 -61 84 -25 36 -48
67 -53 68 -4 2 -8 10 -8 17 0 7 -3 15 -8 17 -4 2 -41 50 -82 108 -41 58 -77
107 -80 110 -3 3 -41 55 -83 115 -43 61 -83 117 -90 125 -7 8 -46 62 -87 120
-41 58 -78 110 -82 115 -13 16 -280 386 -311 431 -15 22 -36 50 -47 62 -11 12
-20 23 -20 26 0 3 -38 58 -85 122 -78 107 -98 147 -77 156 5 2 28 32 53 68 24
36 49 69 55 75 6 5 37 48 69 95 33 47 62 87 65 90 6 5 59 79 90 125 33 50 179
251 194 268 9 9 16 21 16 27 0 5 6 13 13 17 6 4 17 15 22 24 21 34 94 135 114
158 12 13 21 28 21 32 0 4 6 14 13 21 7 7 24 29 37 48 13 19 27 37 30 40 3 3
10 13 15 22 10 16 165 232 182 253 15 19 258 356 268 373 6 9 16 23 23 30 7 8
21 27 30 41 9 14 20 31 25 36 4 6 29 39 55 75 26 36 50 67 54 68 5 2 8 8 8 12
0 9 84 129 113 161 8 9 23 30 33 48 10 17 22 31 26 31 4 0 8 5 8 11 0 9 41 66
88 125 5 5 22 30 38 55 16 24 39 55 52 69 12 14 25 33 28 43 3 9 10 17 15 17
5 0 9 6 9 14 0 8 4 16 8 18 4 2 46 57 93 123 48 66 161 224 252 350 92 127
173 239 181 250 8 11 41 56 73 100 32 44 81 112 108 150 27 39 53 72 57 73 4
2 8 9 8 15 0 7 15 29 33 49 58 65 86 132 83 196 -1 32 -10 72 -20 89 -20 39
-72 94 -80 86 -3 -4 -6 -2 -6 4 0 27 -135 38 -192 15z"/>
<path d="M4284 9876 c-21 -24 -52 -61 -69 -82 -16 -21 -49 -57 -71 -81 -23
-24 -40 -43 -37 -43 2 0 -2 -6 -9 -14 -7 -7 -33 -37 -58 -66 -25 -28 -54 -62
-65 -75 -11 -12 -40 -46 -65 -75 -25 -30 -55 -64 -67 -76 -13 -13 -23 -26 -23
-29 0 -3 -10 -16 -22 -29 -13 -13 -43 -47 -67 -76 -25 -29 -50 -58 -56 -64 -5
-6 -33 -38 -60 -71 -27 -33 -60 -70 -72 -82 -13 -12 -23 -26 -23 -32 0 -5 -4
-11 -9 -13 -4 -1 -40 -41 -80 -88 -39 -47 -80 -94 -90 -105 -10 -11 -51 -58
-91 -105 -39 -47 -82 -97 -96 -112 -13 -14 -24 -29 -24 -32 0 -2 176 -5 390
-5 215 0 394 -2 398 -5 5 -3 8 -509 3 -571 -1 -5 -11 -10 -23 -11 -35 -1 -167
-36 -255 -68 -22 -8 -44 -12 -47 -9 -3 4 -6 1 -6 -5 0 -6 -14 -14 -31 -17 -73
-16 -382 -180 -470 -249 -14 -12 -36 -28 -49 -36 -37 -24 -160 -128 -218 -184
-79 -75 -219 -236 -250 -288 -9 -16 -20 -28 -24 -28 -4 0 -8 -5 -8 -10 0 -10
-37 -68 -51 -80 -3 -3 -12 -18 -21 -35 -8 -16 -31 -59 -52 -93 -20 -35 -36
-70 -36 -78 0 -8 -4 -14 -10 -14 -5 0 -10 -5 -10 -11 0 -5 -11 -34 -24 -62
-58 -130 -132 -370 -150 -493 -4 -22 -8 -51 -11 -64 -20 -102 -27 -459 -11
-570 3 -25 8 -63 11 -85 11 -79 35 -182 65 -285 17 -58 32 -109 34 -115 1 -5
7 -20 14 -32 7 -12 12 -26 12 -31 0 -5 9 -30 20 -56 12 -25 20 -47 19 -48 -1
-2 11 -28 28 -58 49 -90 57 -105 58 -110 1 -12 120 -195 168 -260 75 -101 202
-238 307 -331 92 -82 314 -239 337 -239 7 0 13 -3 13 -7 0 -5 10 -13 23 -19
135 -68 179 -89 222 -106 28 -11 64 -26 80 -33 41 -19 257 -83 305 -91 22 -4
40 -9 41 -13 0 -3 1 -342 2 -753 l0 -748 21 -1 c12 -1 24 -1 27 -1 17 2 130 2
166 0 24 -1 45 0 47 3 2 2 39 2 80 -1 42 -3 76 -2 76 2 0 4 11 4 23 -1 13 -5
30 -5 37 -1 8 5 18 6 23 3 12 -7 116 -7 124 0 3 4 12 2 20 -4 9 -8 13 -8 13
-1 0 7 8 9 19 4 11 -4 42 -5 69 -4 37 3 51 8 54 20 2 10 3 346 2 748 l0 730
20 1 c12 1 35 5 51 9 17 4 41 7 55 8 14 1 27 4 30 7 4 5 41 16 110 33 8 3 26
9 40 14 14 5 30 11 35 12 6 1 21 7 35 12 14 6 30 11 35 12 31 6 325 149 325
158 0 5 5 8 10 8 12 0 124 72 128 83 2 4 10 7 18 7 8 0 14 5 14 10 0 6 5 10
10 10 6 0 18 8 29 18 31 29 138 112 145 112 3 0 45 -32 94 -70 109 -88 90 -75
203 -147 89 -58 335 -183 359 -183 6 0 18 -4 28 -9 31 -16 67 -29 107 -41 22
-6 49 -15 60 -20 18 -7 137 -36 195 -47 13 -2 27 -6 29 -9 3 -3 5 -122 6 -265
l0 -260 -57 3 c-32 2 -58 0 -58 -5 0 -4 -5 -5 -10 -2 -9 6 -309 10 -335 4 -6
-1 -14 -1 -20 0 -25 5 -298 2 -302 -3 -6 -5 30 -58 62 -93 11 -12 37 -40 58
-62 20 -22 37 -43 37 -46 0 -3 10 -16 23 -29 23 -24 37 -41 127 -146 30 -36
63 -72 72 -81 10 -9 18 -21 18 -28 0 -6 4 -11 8 -11 5 0 30 -27 58 -61 27 -34
56 -68 64 -77 9 -10 43 -48 75 -87 33 -38 62 -72 65 -75 3 -3 34 -39 69 -80
73 -86 147 -173 174 -204 11 -11 35 -41 55 -65 21 -24 51 -59 67 -77 17 -17
40 -45 53 -61 35 -46 89 -103 97 -103 4 0 15 9 24 19 9 10 36 43 61 72 25 29
54 63 65 76 11 12 36 41 55 64 19 23 40 47 45 53 6 6 33 38 60 71 28 32 57 66
65 75 8 8 35 40 60 70 25 29 56 66 70 81 14 15 41 46 60 69 19 23 43 51 54 63
10 12 35 42 55 67 20 24 45 54 56 65 11 11 43 47 70 80 27 33 54 65 60 71 5 6
33 37 60 69 28 32 59 69 70 81 11 12 29 33 39 46 33 39 120 142 143 167 12 14
21 26 20 27 -7 7 -107 9 -107 3 0 -5 -7 -6 -15 -3 -23 9 -145 10 -145 1 0 -5
-5 -5 -11 -2 -9 6 -228 10 -254 5 -5 -1 -12 -2 -15 -1 -19 6 -200 5 -200 -1 0
-4 -10 -4 -22 1 l-23 8 -1 257 c0 238 1 258 18 267 10 5 18 7 18 5 0 -3 11 -1
24 4 13 5 43 12 67 15 24 4 48 10 54 13 5 4 16 8 23 9 6 2 18 4 25 6 6 1 18 6
25 10 6 5 12 6 12 2 0 -3 9 -1 21 5 11 6 29 13 40 15 11 2 34 11 51 20 17 8
35 15 39 15 25 0 326 156 360 186 8 8 19 14 23 14 4 0 35 20 67 45 33 25 64
45 69 45 6 0 10 4 10 8 0 4 23 26 52 47 56 43 248 229 248 241 0 4 8 14 18 23
33 31 99 116 158 206 84 128 81 124 112 185 15 30 30 57 33 60 7 6 70 148 73
164 1 6 7 21 14 33 7 12 13 30 15 40 2 10 8 27 14 38 6 11 11 22 11 25 0 3 6
25 13 50 7 25 13 50 15 55 1 6 9 37 17 70 9 33 18 76 21 95 3 19 8 46 11 60 4
14 8 48 10 75 2 28 7 66 10 85 6 39 7 323 1 385 -2 22 -8 65 -12 95 -4 30 -8
66 -10 80 -1 14 -3 25 -4 25 -2 0 -5 13 -13 60 -11 59 -37 160 -46 180 -8 17
-23 75 -22 82 0 2 -11 28 -24 58 -14 31 -25 62 -25 69 0 7 -7 19 -15 26 -9 7
-14 15 -11 17 5 5 -72 160 -114 228 -17 28 -33 58 -37 68 -3 9 -10 17 -15 17
-5 0 -6 5 -3 10 3 6 2 10 -3 10 -6 0 -23 20 -39 45 -15 25 -31 45 -35 45 -5 0
-8 7 -8 15 0 8 -4 15 -10 15 -5 0 -10 6 -10 13 0 8 -12 25 -27 40 -16 14 -39
39 -53 57 -68 84 -216 223 -320 300 -19 14 -41 32 -50 40 -8 8 -33 24 -53 35
-21 11 -46 27 -56 35 -35 30 -317 175 -361 186 -3 0 -14 4 -25 9 -70 29 -115
44 -115 39 0 -4 -6 -2 -12 3 -12 10 -54 24 -88 29 -13 2 -138 32 -166 39 -7 2
-10 240 -10 770 1 430 -3 769 -8 772 -12 8 -771 7 -783 0 -6 -4 -9 -299 -9
-767 1 -419 -3 -764 -7 -767 -6 -4 -104 -29 -187 -48 -69 -16 -259 -87 -323
-120 -16 -8 -35 -15 -43 -15 -8 0 -14 -4 -14 -10 0 -5 -9 -10 -19 -10 -11 0
-21 -3 -23 -7 -1 -5 -21 -17 -43 -28 -49 -24 -232 -141 -252 -160 -8 -8 -17
-15 -21 -15 -4 0 -22 -14 -39 -31 -18 -16 -33 -27 -33 -24 0 3 -14 -8 -30 -25
-31 -32 -38 -32 -70 0 -3 3 -27 23 -55 45 -27 21 -52 42 -55 45 -9 10 -154
107 -195 131 -63 36 -235 123 -285 142 -25 10 -54 22 -65 27 -32 14 -138 49
-160 53 -11 2 -27 7 -35 10 -32 14 -157 41 -206 46 -12 1 -14 554 -3 566 4 3
183 6 399 6 l392 0 -19 22 c-10 12 -22 26 -28 32 -5 6 -28 33 -50 60 -22 27
-54 65 -71 84 -17 20 -44 51 -60 70 -16 19 -36 42 -44 51 -8 9 -49 56 -90 105
-41 49 -82 96 -90 105 -41 44 -80 90 -80 94 0 2 -15 20 -32 39 -18 18 -78 87
-134 153 -155 182 -229 269 -273 319 -30 35 -88 102 -140 163 -20 24 -48 56
-62 72 l-25 29 -40 -43z"/>
</g>
</svg>
